<svg width="131" height="62" viewBox="0 0 131 62" fill="none" xmlns="http://www.w3.org/2000/svg">
<path d="M8.96 38.601C7.488 38.601 6.144 38.2223 4.928 37.465C3.72267 36.7076 2.75733 35.689 2.032 34.409C1.31733 33.129 0.96 31.7156 0.96 30.169C0.96 29.0063 1.168 27.9183 1.584 26.905C2 25.881 2.57067 24.985 3.296 24.217C4.032 23.4383 4.88533 22.8303 5.856 22.393C6.82667 21.9556 7.86133 21.737 8.96 21.737C10.208 21.737 11.3493 22.0036 12.384 22.537C13.4293 23.0596 14.3147 23.7796 15.04 24.697C15.7653 25.6143 16.2933 26.6596 16.624 27.833C16.9547 29.0063 17.0293 30.233 16.848 31.513H5.152C5.30133 32.1103 5.54667 32.649 5.888 33.129C6.22933 33.5983 6.66133 33.977 7.184 34.265C7.70667 34.5423 8.29867 34.6863 8.96 34.697C9.64267 34.7076 10.2613 34.5476 10.816 34.217C11.3813 33.8756 11.8507 33.417 12.224 32.841L16.208 33.769C15.5573 35.1876 14.5867 36.3503 13.296 37.257C12.0053 38.153 10.56 38.601 8.96 38.601ZM5.024 28.585H12.896C12.7787 27.945 12.528 27.369 12.144 26.857C11.7707 26.3343 11.3067 25.9183 10.752 25.609C10.1973 25.2996 9.6 25.145 8.96 25.145C8.32 25.145 7.728 25.2996 7.184 25.609C6.64 25.9076 6.176 26.3183 5.792 26.841C5.41867 27.353 5.16267 27.9343 5.024 28.585ZM31.6098 14.185H35.5138V38.185H31.6098V36.185C31.0978 36.8996 30.4524 37.481 29.6738 37.929C28.8951 38.377 27.9938 38.601 26.9698 38.601C25.8071 38.601 24.7191 38.3823 23.7058 37.945C22.6924 37.5076 21.7964 36.905 21.0178 36.137C20.2498 35.3583 19.6471 34.4623 19.2098 33.449C18.7724 32.4356 18.5538 31.3476 18.5538 30.185C18.5538 29.0223 18.7724 27.9343 19.2098 26.921C19.6471 25.9076 20.2498 25.017 21.0178 24.249C21.7964 23.4703 22.6924 22.8623 23.7058 22.425C24.7191 21.9876 25.8071 21.769 26.9698 21.769C27.9938 21.769 28.8951 21.993 29.6738 22.441C30.4524 22.8783 31.0978 23.4596 31.6098 24.185V14.185ZM27.0178 34.841C27.8498 34.841 28.5858 34.633 29.2258 34.217C29.8658 33.801 30.3671 33.241 30.7298 32.537C31.0924 31.8223 31.2738 31.0383 31.2738 30.185C31.2738 29.321 31.0924 28.537 30.7298 27.833C30.3671 27.1183 29.8604 26.553 29.2098 26.137C28.5698 25.721 27.8391 25.513 27.0178 25.513C26.1964 25.513 25.4498 25.7263 24.7778 26.153C24.1058 26.569 23.5671 27.129 23.1618 27.833C22.7564 28.537 22.5538 29.321 22.5538 30.185C22.5538 31.049 22.7564 31.833 23.1618 32.537C23.5671 33.241 24.1058 33.801 24.7778 34.217C25.4604 34.633 26.2071 34.841 27.0178 34.841ZM39.2325 30.425V22.185H43.1365V30.361C43.1365 31.1823 43.3072 31.9343 43.6485 32.617C43.9898 33.2996 44.4645 33.8436 45.0725 34.249C45.6805 34.6436 46.3738 34.841 47.1525 34.841C47.9312 34.841 48.5978 34.6436 49.1525 34.249C49.7178 33.8436 50.1498 33.2996 50.4485 32.617C50.7578 31.9343 50.9125 31.1823 50.9125 30.361V22.185H54.8165V38.185H50.9125V36.281C50.3898 36.985 49.7552 37.5556 49.0085 37.993C48.2725 38.4196 47.4352 38.633 46.4965 38.633C45.0138 38.633 43.7338 38.265 42.6565 37.529C41.5792 36.7823 40.7418 35.7903 40.1445 34.553C39.5472 33.305 39.2432 31.929 39.2325 30.425ZM66.734 38.601C65.4967 38.601 64.3073 38.409 63.166 38.025C62.0353 37.6303 61.0433 37.0703 60.19 36.345C59.3367 35.609 58.7233 34.729 58.35 33.705L62.014 32.361C62.1633 32.7876 62.4673 33.177 62.926 33.529C63.3847 33.881 63.9447 34.1636 64.606 34.377C65.2673 34.5903 65.9767 34.697 66.734 34.697C67.5127 34.697 68.238 34.5796 68.91 34.345C69.5927 34.0996 70.142 33.7636 70.558 33.337C70.974 32.8996 71.182 32.393 71.182 31.817C71.182 31.2303 70.9633 30.7503 70.526 30.377C70.0887 29.993 69.5287 29.689 68.846 29.465C68.1633 29.241 67.4593 29.0703 66.734 28.953C65.1447 28.7076 63.7207 28.329 62.462 27.817C61.2033 27.305 60.206 26.5956 59.47 25.689C58.7447 24.7823 58.382 23.609 58.382 22.169C58.382 20.8143 58.7713 19.6303 59.55 18.617C60.3287 17.6036 61.3527 16.8143 62.622 16.249C63.8913 15.6836 65.262 15.401 66.734 15.401C67.9607 15.401 69.1447 15.593 70.286 15.977C71.4273 16.361 72.4247 16.921 73.278 17.657C74.142 18.393 74.7607 19.2783 75.134 20.313L71.454 21.641C71.3047 21.2143 71.0007 20.825 70.542 20.473C70.0833 20.121 69.5233 19.8436 68.862 19.641C68.2007 19.4276 67.4913 19.321 66.734 19.321C65.9767 19.3103 65.2567 19.433 64.574 19.689C63.902 19.9343 63.3527 20.2703 62.926 20.697C62.4993 21.1236 62.286 21.6143 62.286 22.169C62.286 22.8836 62.4833 23.4223 62.878 23.785C63.2833 24.1476 63.822 24.4143 64.494 24.585C65.166 24.745 65.9127 24.8943 66.734 25.033C68.2273 25.2676 69.6087 25.6623 70.878 26.217C72.1473 26.7716 73.166 27.513 73.934 28.441C74.702 29.3583 75.086 30.4836 75.086 31.817C75.086 33.1716 74.702 34.361 73.934 35.385C73.166 36.3983 72.1473 37.1876 70.878 37.753C69.6087 38.3183 68.2273 38.601 66.734 38.601ZM86.9648 26.089H83.8608V38.185H79.9568V26.089H77.5888V22.185H79.9568V17.161H83.8608V22.185H86.9648V26.089ZM101.645 22.185H105.549V38.185H101.629L101.469 36.201C101.021 36.9156 100.434 37.497 99.7088 37.945C98.9941 38.3823 98.1514 38.601 97.1808 38.601C95.9968 38.601 94.8874 38.377 93.8528 37.929C92.8181 37.481 91.9061 36.8623 91.1168 36.073C90.3274 35.2836 89.7141 34.3716 89.2768 33.337C88.8394 32.3023 88.6208 31.193 88.6208 30.009C88.6208 28.8676 88.8288 27.7956 89.2448 26.793C89.6608 25.7903 90.2474 24.9103 91.0048 24.153C91.7621 23.3956 92.6368 22.8036 93.6288 22.377C94.6208 21.9503 95.6874 21.737 96.8288 21.737C97.8954 21.737 98.8448 21.9716 99.6768 22.441C100.519 22.9103 101.234 23.5076 101.821 24.233L101.645 22.185ZM97.2928 34.841C98.1461 34.841 98.8874 34.6223 99.5168 34.185C100.146 33.7476 100.621 33.1663 100.941 32.441C101.271 31.705 101.405 30.8943 101.341 30.009C101.266 29.177 101.021 28.425 100.605 27.753C100.189 27.0703 99.6554 26.5263 99.0048 26.121C98.3541 25.7156 97.6234 25.513 96.8128 25.513C95.9701 25.513 95.2128 25.7316 94.5408 26.169C93.8794 26.6063 93.3674 27.193 93.0048 27.929C92.6421 28.6543 92.4981 29.465 92.5728 30.361C92.6581 31.1823 92.9248 31.9343 93.3728 32.617C93.8208 33.289 94.3861 33.8276 95.0688 34.233C95.7621 34.6383 96.5034 34.841 97.2928 34.841ZM113.917 18.825V22.185H118.285V26.089H113.917V38.185H110.013V26.089H108.269V22.185H110.013V18.825C110.013 17.9076 110.237 17.0703 110.685 16.313C111.143 15.545 111.757 14.937 112.525 14.489C113.293 14.0303 114.141 13.801 115.069 13.801C115.741 13.801 116.407 13.9396 117.069 14.217C117.73 14.4943 118.317 14.921 118.829 15.497L116.013 18.249C115.917 18.0676 115.778 17.9343 115.597 17.849C115.426 17.753 115.25 17.705 115.069 17.705C114.759 17.705 114.487 17.817 114.253 18.041C114.029 18.2543 113.917 18.5156 113.917 18.825ZM125.729 18.825V22.185H130.097V26.089H125.729V38.185H121.825V26.089H120.081V22.185H121.825V18.825C121.825 17.9076 122.049 17.0703 122.497 16.313C122.956 15.545 123.569 14.937 124.337 14.489C125.105 14.0303 125.953 13.801 126.881 13.801C127.553 13.801 128.22 13.9396 128.881 14.217C129.543 14.4943 130.129 14.921 130.641 15.497L127.825 18.249C127.729 18.0676 127.591 17.9343 127.409 17.849C127.239 17.753 127.063 17.705 126.881 17.705C126.572 17.705 126.3 17.817 126.065 18.041C125.841 18.2543 125.729 18.5156 125.729 18.825Z" fill="#001451"/>
<path d="M97.1548 54.204C96.5948 54.204 96.1028 54.08 95.6788 53.832C95.2628 53.584 94.9348 53.236 94.6948 52.788C94.4628 52.34 94.3388 51.824 94.3228 51.24H94.5988V54H93.8788V45.24H94.7788V49.62L94.4308 50.424C94.4468 49.784 94.5748 49.244 94.8148 48.804C95.0628 48.356 95.3908 48.016 95.7988 47.784C96.2148 47.552 96.6868 47.436 97.2148 47.436C97.6788 47.436 98.0988 47.524 98.4748 47.7C98.8508 47.876 99.1708 48.116 99.4348 48.42C99.7068 48.724 99.9108 49.076 100.047 49.476C100.191 49.868 100.263 50.284 100.263 50.724V50.892C100.263 51.324 100.191 51.74 100.047 52.14C99.9028 52.532 99.6948 52.884 99.4228 53.196C99.1588 53.508 98.8348 53.756 98.4508 53.94C98.0668 54.116 97.6348 54.204 97.1548 54.204ZM97.0588 53.412C97.5388 53.412 97.9508 53.296 98.2948 53.064C98.6388 52.832 98.9028 52.52 99.0868 52.128C99.2708 51.736 99.3628 51.296 99.3628 50.808C99.3628 50.312 99.2668 49.872 99.0748 49.488C98.8908 49.096 98.6228 48.788 98.2708 48.564C97.9268 48.34 97.5228 48.228 97.0588 48.228C96.6268 48.228 96.2348 48.324 95.8828 48.516C95.5308 48.708 95.2508 48.98 95.0428 49.332C94.8428 49.676 94.7428 50.084 94.7428 50.556V51.144C94.7428 51.592 94.8428 51.988 95.0428 52.332C95.2508 52.668 95.5308 52.932 95.8828 53.124C96.2348 53.316 96.6268 53.412 97.0588 53.412ZM101.413 56.472V55.668H102.229C102.509 55.668 102.749 55.632 102.949 55.56C103.149 55.496 103.317 55.38 103.453 55.212C103.589 55.044 103.705 54.812 103.801 54.516L105.937 47.652H106.812L104.581 54.768C104.453 55.176 104.277 55.504 104.053 55.752C103.829 56.008 103.561 56.192 103.249 56.304C102.937 56.416 102.581 56.472 102.181 56.472H101.413ZM103.477 53.844V53.088H104.617V53.844H103.477ZM103.369 53.844L101.065 47.652H101.989L104.209 53.844H103.369ZM115.219 54.216C114.435 54.216 113.759 54.076 113.191 53.796C112.623 53.516 112.155 53.148 111.787 52.692C111.419 52.236 111.143 51.748 110.959 51.228C110.783 50.708 110.695 50.208 110.695 49.728V49.464C110.695 48.944 110.787 48.42 110.971 47.892C111.155 47.364 111.435 46.884 111.811 46.452C112.187 46.012 112.655 45.66 113.215 45.396C113.783 45.132 114.451 45 115.219 45C115.987 45 116.651 45.132 117.211 45.396C117.779 45.66 118.251 46.012 118.627 46.452C119.003 46.884 119.283 47.364 119.467 47.892C119.651 48.42 119.743 48.944 119.743 49.464V49.728C119.743 50.208 119.651 50.708 119.467 51.228C119.291 51.748 119.019 52.236 118.651 52.692C118.283 53.148 117.815 53.516 117.247 53.796C116.679 54.076 116.003 54.216 115.219 54.216ZM115.219 53.136C115.731 53.136 116.191 53.04 116.599 52.848C117.015 52.656 117.367 52.396 117.655 52.068C117.943 51.732 118.163 51.356 118.315 50.94C118.467 50.516 118.543 50.072 118.543 49.608C118.543 49.12 118.467 48.664 118.315 48.24C118.163 47.816 117.943 47.444 117.655 47.124C117.367 46.796 117.015 46.54 116.599 46.356C116.191 46.172 115.731 46.08 115.219 46.08C114.707 46.08 114.243 46.172 113.827 46.356C113.419 46.54 113.071 46.796 112.783 47.124C112.495 47.444 112.275 47.816 112.123 48.24C111.971 48.664 111.895 49.12 111.895 49.608C111.895 50.072 111.971 50.516 112.123 50.94C112.275 51.356 112.495 51.732 112.783 52.068C113.071 52.396 113.419 52.656 113.827 52.848C114.243 53.04 114.707 53.136 115.219 53.136ZM121.822 54V47.592H122.974V54H121.822ZM120.838 48.504V47.592H122.974V48.504H120.838ZM122.146 46.56C121.89 46.56 121.698 46.492 121.57 46.356C121.45 46.22 121.39 46.048 121.39 45.84C121.39 45.632 121.45 45.46 121.57 45.324C121.698 45.188 121.89 45.12 122.146 45.12C122.402 45.12 122.59 45.188 122.71 45.324C122.838 45.46 122.902 45.632 122.902 45.84C122.902 46.048 122.838 46.22 122.71 46.356C122.59 46.492 122.402 46.56 122.146 46.56ZM129.078 54V52.08H128.886V49.86C128.886 49.42 128.77 49.088 128.538 48.864C128.314 48.64 127.982 48.528 127.542 48.528C127.294 48.528 127.038 48.532 126.774 48.54C126.51 48.548 126.258 48.556 126.018 48.564C125.778 48.572 125.57 48.584 125.394 48.6V47.592C125.57 47.576 125.754 47.564 125.946 47.556C126.146 47.54 126.35 47.532 126.558 47.532C126.766 47.524 126.966 47.52 127.158 47.52C127.814 47.52 128.35 47.6 128.766 47.76C129.182 47.912 129.49 48.164 129.69 48.516C129.89 48.868 129.99 49.344 129.99 49.944V54H129.078ZM126.978 54.168C126.498 54.168 126.082 54.088 125.73 53.928C125.386 53.76 125.118 53.52 124.926 53.208C124.742 52.896 124.65 52.52 124.65 52.08C124.65 51.624 124.75 51.244 124.95 50.94C125.158 50.636 125.458 50.408 125.85 50.256C126.242 50.096 126.714 50.016 127.266 50.016H129.006V50.88H127.218C126.754 50.88 126.398 50.992 126.15 51.216C125.902 51.44 125.778 51.728 125.778 52.08C125.778 52.432 125.902 52.716 126.15 52.932C126.398 53.148 126.754 53.256 127.218 53.256C127.49 53.256 127.75 53.208 127.998 53.112C128.246 53.008 128.45 52.84 128.61 52.608C128.778 52.368 128.87 52.04 128.886 51.624L129.198 52.08C129.158 52.536 129.046 52.92 128.862 53.232C128.686 53.536 128.438 53.768 128.118 53.928C127.806 54.088 127.426 54.168 126.978 54.168Z" fill="#001451"/>
<path d="M44 15C54.5547 5.3272 81.7176 -8.63847 105 15" stroke="#DD3568" stroke-width="4" stroke-linecap="round"/>
</svg>
